<svg xmlns="http://www.w3.org/2000/svg" viewBox="0 0 100 100">
  <defs>
    <linearGradient id="grad_nivel_47_t10_fenix" x1="0%" y1="0%" x2="0%" y2="100%">
      <stop offset="0%" stop-color="#ffe0b0"/>
      <stop offset="55%" stop-color="#ff9327"/>
      <stop offset="100%" stop-color="#8a3a0a"/>
    </linearGradient>
    <radialGradient id="bg_nivel_47_t10_fenix" cx="50%" cy="45%" r="60%">
      <stop offset="0%" stop-color="#1a2440"/>
      <stop offset="100%" stop-color="#05070f"/>
    </radialGradient>
    <filter id="shadow_nivel_47_t10_fenix" x="-50%" y="-50%" width="200%" height="200%">
      <feDropShadow dx="0" dy="2" stdDeviation="2" flood-color="#000000" flood-opacity="0.5"/>
    </filter>
  </defs>
  <circle cx="50" cy="50" r="48" fill="url(#bg_nivel_47_t10_fenix)"/>
  <g filter="url(#shadow_nivel_47_t10_fenix)">
    <g fill="url(#grad_nivel_47_t10_fenix)" stroke="#101018" stroke-width="4" stroke-linejoin="round">
      <path d="M50 6 C58 20 56 30 50 38 C60 30 78 34 86 50 C70 46 60 52 58 62 C72 60 84 70 88 86 C68 78 56 80 50 92 C44 80 32 78 12 86 C16 70 28 60 42 62 C40 52 30 46 14 50 C22 34 40 30 50 38 C44 30 42 20 50 6 Z"/>
    </g>
    <ellipse cx="50" cy="34" rx="26" ry="14" fill="white" opacity="0.24"/>
  </g>
</svg>
